<svg width="16" height="16" viewBox="0 0 16 16" fill="none" xmlns="http://www.w3.org/2000/svg">
<g clip-path="url(#clip0_1_340)">
<path d="M11.6667 1.27795C10.916 1.28963 10.1816 1.49919 9.53783 1.88547C8.89404 2.27175 8.36357 2.82107 7.99999 3.47795C7.63642 2.82107 7.10595 2.27175 6.46215 1.88547C5.81835 1.49919 5.08403 1.28963 4.33333 1.27795C3.13662 1.32995 2.00913 1.85346 1.19718 2.73411C0.385232 3.61476 -0.0451745 4.78097 -7.46106e-06 5.97795C-7.46106e-06 9.00929 3.19066 12.32 5.86666 14.5646C6.46414 15.0667 7.21956 15.342 7.99999 15.342C8.78042 15.342 9.53585 15.0667 10.1333 14.5646C12.8093 12.32 16 9.00929 16 5.97795C16.0452 4.78097 15.6148 3.61476 14.8028 2.73411C13.9909 1.85346 12.8634 1.32995 11.6667 1.27795Z" fill="#724CF9"/>
</g>
<defs>
<clipPath id="clip0_1_340">
<rect width="16" height="16" fill="white"/>
</clipPath>
</defs>
</svg>
